<?xml version="1.0" encoding="UTF-8"?>
<svg width="80px" height="87px" viewBox="0 0 80 87" version="1.1" xmlns="http://www.w3.org/2000/svg" xmlns:xlink="http://www.w3.org/1999/xlink">
    <title>Group</title>
    <g id="Page-1" stroke="none" stroke-width="1" fill="none" fill-rule="evenodd">
        <g id="TK03" transform="translate(-235.000000, -72.000000)">
            <g id="Group" transform="translate(235.000000, 72.000000)">
                <path d="M80,17.7777778 C74.0750635,20.2821111 69.0294461,22.2343252 63.8299296,25.4330235 C63.6874167,27.8028098 63.6279139,29.8382451 63.615793,31.5983541 C66.0712018,29.8554759 68.4920844,28.4502484 70.6400621,27.3551754 C68.267296,34.280128 68.4612311,42.2125332 68.6503913,49.9477005 C68.8571819,58.3915308 68.9633319,62.8884056 66.1703732,69.1109278 C60.3692172,82.0384348 49.3406297,85.1975389 47.1111111,86.2222222 C66.5516319,84.6831809 74.8945126,73.9975123 73.6545035,48.1622953 C72.8008954,30.3742333 75.4160803,24.7247272 80,17.7777778" id="Fill-22" fill="#00A8A8"></path>
                <path d="M48.178614,72.5637407 C46.307131,67.1168993 45.404381,51.8632425 54.4860682,40.1647999 C54.560898,42.1347697 54.6493668,43.1348346 54.8178261,45.0783223 C55.5650185,53.6772624 56.6918894,66.0204692 48.178614,72.5637407 Z M42.276273,23.045998 C41.5740522,24.09351 40.1548658,26.4949164 40.1172666,26.5633283 C40.0796673,26.4949164 38.7305187,24.2078977 38.0666343,23.2078328 C36.8958977,21.4453057 35.6669191,19.875509 34.4021845,18.4620299 C36.4778828,16.0043492 38.4241956,13.5657944 40.1172666,10.866465 C41.9765851,13.5293816 43.8959886,16.3055825 45.7925377,18.5039598 C44.5805157,19.862268 43.4016694,21.3669629 42.276273,23.045998 Z M60.0083621,22.5958033 C60.8620857,13.6176551 62.4058656,11.3299008 64.8888889,5.60058432 C60.4392787,7.81146712 54.7182987,10.2731937 49.2829991,15.0421683 C46.5647963,12.2218307 40.9897897,5.82604949 40.1172666,0 C39.2447434,5.82604949 33.6701054,12.2221985 30.9522713,15.0421683 C25.5162344,10.2728259 19.7952544,7.81146712 15.3463815,5.60058432 C18.2212477,12.2387498 19.8417005,14.2638905 20.5807833,27.4225235 C20.5807833,27.4228913 20.5807833,27.4232591 20.5811519,27.4236269 C20.5958967,27.6972747 20.6139591,27.9462794 20.6283353,28.2291224 C20.6264922,28.228019 20.6239118,28.2261799 20.6220687,28.2247087 C13.74694,23.0621815 7.59283161,20.7641287 0,17.55502 C4.60000707,24.5245788 7.224949,30.1924716 6.36790786,48.0384263 C5.12344725,73.957726 13.4970157,84.678172 33.0069583,86.2222222 C30.7694359,85.194204 19.701625,82.0248184 13.8796431,69.0552378 C11.0759205,62.8124639 11.1824517,58.3009536 11.3899846,49.8296422 C11.5798239,42.0693002 11.7744551,34.1110784 9.39317094,27.1635879 C12.8264962,28.9132418 16.953564,31.4043929 20.8100648,34.8772186 C20.8115393,34.8790577 20.8130138,34.8797933 20.8148569,34.8812645 C20.8377113,39.9967125 20.5793088,42.7250986 20.412324,44.6461501 C18.5743855,65.8229573 24.041755,70.9876913 33.3387162,76.1733903 C39.5271062,63.2597162 38.9598002,51.8308755 32.4702478,41.0949817 C31.6887738,39.8025108 30.8446343,38.5961067 29.965476,37.4478158 C29.9603153,39.6134585 29.939304,42.511771 29.3782646,46.0471237 C34.494708,56.5303348 33.6258711,67.9933814 32.0566564,72.5637407 C23.5422751,66.0204692 24.9113293,54.1281928 25.4170757,45.0783223 C25.5918015,41.9339475 25.9058656,34.8371278 25.6017542,27.2930557 C25.3875861,23.4612512 25.0149114,19.5875168 24.4159042,16.2489403 C34.0472035,23.1651672 36.8284403,31.1292739 40.1272193,39.3556264 C43.231367,31.6144102 45.9683694,23.3225883 55.8186289,16.2489403 C54.9357844,21.1801174 54.5336201,27.2812859 54.4304066,32.6825193 C52.0067311,35.079512 49.7168646,37.864908 47.7642853,41.0949817 C41.2754701,51.8308755 40.7077956,63.2597162 46.8961855,76.1733903 C56.1935153,70.9876913 61.6601476,65.8229573 59.8218405,44.6461501 C59.1465289,36.8442459 59.4834475,28.1077463 60.0083621,22.5958033 L60.0083621,22.5958033 Z" id="Fill-23" fill="#C70039"></path>
            </g>
        </g>
    </g>
</svg>