<?xml version="1.0" encoding="UTF-8"?>
<svg width="1200px" height="628px" viewBox="0 0 1200 628" version="1.1" xmlns="http://www.w3.org/2000/svg" xmlns:xlink="http://www.w3.org/1999/xlink">
    <title>seo</title>
    <defs>
        <path d="M411.626815,366.393313 C417.55347,352.383817 424.012003,341.666169 428.570968,333.321715 C430.622502,329.570539 431.154382,327.044236 431.078399,325.206925 C435.485398,324.441379 440.272312,323.675833 443.995466,324.058606 C444.983242,324.13516 445.135208,323.522723 444.907259,322.910286 C443.767518,319.924656 440.880174,319.082555 437.688898,319.006001 C433.357881,318.852891 420.744745,321.685412 413.98228,321.14953 C413.222453,321.072975 412.918522,321.455749 413.14647,322.14474 C413.98228,324.977261 417.249539,326.661463 421.808504,326.508354 C423.176193,326.431799 424.695848,326.27869 426.443451,325.972471 C419.377056,336.766673 411.170919,353.379027 409.423315,359.656506 C408.43554,363.331128 409.347333,365.627767 410.411091,366.622977 C410.94297,367.158859 411.322884,367.158859 411.626815,366.393313 Z M449.485313,366 C454.054357,366 458.855726,362.210905 461.101528,358.05033 C462.185708,355.970042 462.108267,353.96405 461.798501,353.369682 C461.488735,352.701019 460.791762,352.775315 460.404555,353.443978 C457.384339,358.644697 453.434826,363.548232 450.182286,363.696824 C447.394394,363.845416 447.084628,360.724985 449.098105,356.490114 C450.879258,352.701019 454.75133,347.12882 456.455042,343.7855 C458.313636,340.070701 457.694105,336.801678 456.532483,335.46435 C455.912952,334.72139 455.370862,334.869982 454.596447,335.910126 C452.118321,339.104853 449.87252,344.231276 444.993709,351.809467 C440.811872,358.273217 436.552593,363.473936 433.532377,363.251049 C431.751223,363.102457 431.518899,360.427801 433.145169,356.787298 C434.77144,353.22109 436.320268,350.249251 439.185601,345.865788 C441.973493,341.630917 442.3607,338.287597 440.656989,335.83583 C440.037457,335.167166 439.263043,335.09287 438.643511,335.910126 C433.609818,342.671061 429.660305,349.952067 427.956593,354.855602 C426.252881,359.759137 426.407764,365.25704 431.906106,365.62852 C436.242827,365.925704 440.347223,362.136609 443.057673,358.644697 C442.438142,362.953865 444.451619,366 449.485313,366 Z M481.359534,359.398973 C482.18872,357.539886 482.490242,355.835724 482.113339,354.596333 C481.811817,353.511865 480.982632,353.589327 480.454968,354.596333 C477.515129,360.560902 472.238495,366.138162 468.620231,365.828314 C465.228109,365.518466 466.057295,359.089125 469.072514,351.497855 C475.781378,347.005062 484.223993,337.709629 486.560788,328.181811 C487.465354,324.541099 487.013071,321.675008 484.827037,319.660997 C483.77171,318.653992 482.716383,318.808916 481.585676,320.048307 C473.896866,328.259273 465.30349,342.279884 462.514411,355.758262 C460.78066,364.124151 463.569738,367.842325 468.770992,367.997248 C474.801431,368.152172 480.304207,361.722831 481.359534,359.398973 Z M471,347 C471.538974,345.74019 472.154944,344.480381 472.84791,343.220571 C478.160651,333.142095 483.858373,324.402167 484.859324,325.032072 C485.860276,325.661976 481.548486,338.260072 471,347 Z M515.156903,359.010782 C516.12298,356.922437 516.12298,355.057843 515.825726,354.38659 C515.528471,353.715336 515.008275,353.78992 514.636707,354.461173 C512.035728,359.607452 507.948477,364.679147 504.901616,364.828315 C502.374951,364.977482 502.449265,361.770381 504.307107,357.593691 C506.090635,353.640752 509.806318,348.046971 511.441219,344.690702 C513.224747,340.961515 512.630238,337.754413 511.515533,336.411906 C510.995337,335.740652 510.400828,335.889819 509.732005,336.859408 C508.914554,338.052748 508.02279,339.619007 507.056713,341.409017 C507.20534,338.500251 505.719067,336.038987 502.523579,336.038987 C498.807895,336.038987 492.937115,339.395256 486.917708,348.196138 C480.749674,357.220772 482.161633,366.692909 489.072805,366.692909 C492.639861,366.692909 495.983976,363.93331 498.362013,360.875376 C498.362013,364.380812 500.442796,366.767492 504.455734,366.991244 C508.542986,367.214995 513.224747,363.112889 515.156903,359.010782 Z M489.705549,363.999114 C486.764342,363.922453 487.744744,357.17629 491.741769,350.583449 C495.889625,343.760625 501.394961,338.777663 503.808259,339.007646 C505.99531,339.237629 505.31657,343.990608 500.565389,352.423311 C496.719196,359.169475 492.797587,364.075775 489.705549,363.999114 Z M516.575545,392.704239 C522.97497,390.270545 528.449176,378.026023 532.76686,367.83493 C539.166285,365.24913 544.56339,362.359118 547.570348,357.643836 C548.881074,355.66646 549.112378,353.917243 548.958175,353.232766 C548.803972,352.472237 548.110059,352.54829 547.724551,353.080661 C544.640491,357.263572 540.091503,361.598589 534.077586,364.792812 C537.315849,357.415678 542.01904,348.289326 544.332085,343.878256 C546.336724,339.999556 545.719912,336.72928 544.640491,335.360327 C543.946578,334.751904 543.406867,334.90401 542.712954,335.892698 C540.014401,339.771397 536.699037,346.616161 533.383672,352.244078 C529.451496,358.860683 525.596421,363.728071 522.589462,363.499912 C520.816128,363.347806 520.661925,360.685954 522.203955,356.95936 C523.668883,353.384872 525.365116,350.266702 528.14077,345.855632 C530.993526,341.368509 531.456135,338.174286 529.605699,335.740592 C529.065988,334.980062 528.294973,334.90401 527.678161,335.740592 C522.666564,342.585356 518.88859,350.114596 517.192357,354.981984 C515.419023,360.001477 515.573226,365.553342 521.124534,366.009659 C524.208594,366.237818 527.138451,364.260442 529.528597,361.826748 C528.680481,363.652018 527.909466,365.553342 527.138451,367.302559 C519.505402,370.268623 512.951775,374.831799 510.63873,381.676563 C509.0967,386.163686 510.63873,388.825539 512.18076,391.107127 C513.645688,393.236609 515.110617,393.236609 516.575545,392.704239 Z M514.283239,388.837912 C512.939916,386.956276 516.298223,376.644909 526,371 C521.372999,382.064021 515.253417,390.267956 514.283239,388.837912 Z M555.441298,331.961872 C557.49594,329.625989 561.072539,324.80823 562.82279,322.107366 C563.659866,320.793431 564.344747,319.114516 563.812062,317.727585 C563.507671,316.924625 562.898888,316.63264 561.909616,317.654589 C559.322289,320.42845 554.908613,328.093066 553.158362,331.669886 C552.853971,332.39985 553.006167,332.910824 553.462754,332.98382 C553.995439,333.056817 554.604222,332.910824 555.441298,331.961872 Z M565.391289,367.986678 C570.766787,367.752683 575.915151,364.788738 578.792178,359.406839 C580.079269,356.988884 580.15498,354.960922 579.852135,354.258935 C579.54929,353.634947 578.792178,353.400951 578.413622,354.258935 C576.520841,358.470856 573.340969,363.150769 568.268316,365.100732 C570.99392,363.228767 571.523899,359.952829 571.675321,356.910886 C571.902455,351.528986 570.463942,345.4451 570.99392,338.269235 C571.296765,337.723245 571.523899,337.255254 571.826744,336.787262 C572.81099,334.993296 573.189546,334.135312 572.432434,333.355327 C571.751033,332.65334 570.009674,332.965334 568.344027,334.525305 C566.754091,336.007277 565.996979,337.489249 565.618422,340.531192 C563.422796,344.509118 560.015791,349.579023 556.91163,353.946941 C556.835919,353.322953 556.835919,352.698964 556.760207,352.074976 C556.684496,350.827 556.078806,350.515005 555.170271,351.294991 C552.596089,353.47895 552.368956,358.626853 554.186025,362.136788 C556.760207,366.972697 561.000037,368.142675 565.391289,367.986678 Z M557,357.189891 C560.122204,353.126594 563.162245,348.988051 565.544979,345 C565.873632,351.019699 567.106081,362.833359 563.326571,363.886806 C560.615184,364.639269 558.232449,361.554173 557,357.189891 Z M603.397271,367.381225 C605.921652,361.434213 608.599026,355.641669 611.2764,350.466996 C615.024724,355.950605 618.390565,361.511447 621.297428,367.226757 C621.67991,367.921863 622.215385,367.921863 622.674363,367.381225 C623.821809,365.913781 624.510277,363.210593 622.674363,358.80826 C621.756407,356.64571 619.691004,353.092949 617.243119,349.154019 C627.570133,341.816797 637.973643,332.394258 641.415981,327.682989 C644.169851,323.898527 644.246348,321.272573 643.787369,319.573427 C643.481384,318.878322 642.869413,318.801088 642.333938,319.418959 C635.06678,327.374053 624.357284,337.028293 614.336256,344.597218 C617.090126,339.422545 619.614508,334.865744 621.603414,331.235749 C624.739766,325.443205 624.357284,321.735977 623.362831,319.959596 C622.75086,318.955555 622.215385,318.878322 621.526917,319.805129 C616.860637,326.370012 603.703257,352.552312 601.790847,359.117195 C600.413912,363.751231 601.025883,365.991015 602.173329,367.612927 C602.632307,368.230798 603.091286,368.07633 603.397271,367.381225 Z M650.951818,335.370877 C651.930314,334.305616 652.457196,332.251185 651.4787,330.272843 C650.500205,328.218412 648.317407,327.305331 647.113104,328.598862 C645.908802,329.892393 645.532457,332.175095 646.73676,334.229526 C647.865793,336.207867 649.973322,336.436137 650.951818,335.370877 Z M638.951229,366 C643.156081,366 647.886539,362.851834 650.139138,358.204541 C651.040178,356.330632 651.265438,354.756549 650.664745,353.557248 C650.364398,352.957597 649.838792,352.882641 649.463358,353.557248 C647.210759,358.729235 643.080994,363.676354 639.702095,363.826266 C637.299323,363.976179 637.14915,361.052882 638.951229,356.705414 C640.528048,352.957597 643.681687,347.860566 645.258507,344.562487 C647.060586,340.81467 646.459893,337.591548 645.333593,336.392246 C644.7329,335.717639 644.207294,335.942508 643.531514,336.841985 C640.753308,340.739714 635.79759,349.584562 633.920424,355.056375 C631.817998,361.202794 633.244645,366 638.951229,366 Z M671.500681,357.455846 C672.285342,355.733157 672.677673,354.384966 672.285342,353.186573 C671.971478,352.13798 671.10835,352.287779 670.637554,353.186573 C667.734307,358.804038 663.261738,364.121905 659.730762,363.972106 C656.435184,363.822306 655.572057,359.178536 658.161439,353.71087 C661.143152,347.419309 665.615721,340.154055 668.6759,335.135786 C670.637554,334.836188 673.070003,334.611489 674.796258,334.836188 C675.97325,334.836188 676.287115,334.311891 675.737852,333.413097 C675.110123,332.439403 673.933131,331.091211 670.872952,331.166111 C672.756139,327.271335 672.756139,324.799651 671.893012,322.702464 C671.500681,321.803669 670.71602,321.72877 670.009825,322.702464 C668.6759,324.350253 666.478849,327.870531 664.046399,331.990006 C661.927813,332.214704 659.730762,332.364503 657.53371,332.289604 C656.356718,332.214704 655.885922,332.739001 656.670583,333.787594 C657.298312,334.611489 659.103033,335.734982 661.770881,335.734982 C658.396838,341.652045 655.10126,347.943606 653.453472,351.688582 C649.687098,360.302029 653.845802,365.844594 659.024567,365.994393 C665.301857,366.219091 670.480621,359.627933 671.500681,357.455846 Z M683.119185,366.998191 C688.814668,366.922421 694.734972,363.209658 697.582713,358.739188 C698.856703,356.69338 699.156465,354.799113 698.931643,354.192947 C698.631881,353.43524 697.957416,353.511011 697.582713,354.117177 C694.51015,358.890729 689.11443,364.952383 682.819423,364.876612 C678.39793,364.800842 676.824178,358.511876 680.945909,349.949789 C684.318234,343.054658 689.938776,338.205335 691.212765,339.266124 C692.261933,340.099602 690.013716,343.357741 689.18937,346.085485 C688.140202,349.495165 689.18937,351.768286 690.987944,352.677534 C691.962171,353.207928 692.261933,352.980616 692.561696,352.071368 C694.060507,347.979752 697.058129,343.963906 695.484377,340.781538 C694.585091,339.038812 693.386042,337.826481 691.362647,336.614151 C687.615619,334.34103 680.046622,338.432647 675.250426,347.979752 C670.37929,357.754169 673.601734,367.149733 683.119185,366.998191 Z M719.015041,368 C723.407307,368 727.948463,364.156778 730.032929,359.775504 C731.149606,357.46957 731.149606,355.855417 730.777381,355.009908 C730.4796,354.394992 729.735148,354.394992 729.437367,355.086772 C727.129566,360.006097 723.035081,365.540338 719.982828,365.694067 C717.228356,365.847795 716.85613,362.235166 718.71726,357.777028 C720.429499,353.780077 724.002868,348.168972 725.640663,344.786936 C727.576237,340.866849 725.268437,337.023627 722.7373,336.716169 C720.72728,336.485576 716.85613,339.022102 713.803878,342.09668 C714.278121,341.33373 714.768704,340.547161 715.266185,339.750719 L716.016401,338.550372 L716.016401,338.550372 L716.769885,337.345526 C719.153617,333.533938 721.480004,329.809756 722.7373,327.646164 C725.566217,322.803703 725.789553,318.960481 724.821765,316.731412 C724.44954,315.809038 723.705088,315.732174 723.035081,316.654547 C720.20849,320.293599 715.304486,328.17183 710.623354,336.307092 L709.690781,337.936392 C704.740176,346.631683 700.217631,355.317366 698.91484,359.160588 C697.351491,363.772455 698.021498,365.92466 699.212621,367.30822 C699.659292,367.846271 700.180408,367.692542 700.478189,367.000762 C702.264874,362.312031 705.019346,356.931519 707.699372,352.396517 C712.017193,345.094394 720.131719,339.867611 721.173951,340.482527 C722.365074,341.174307 715.888343,349.16821 713.431652,356.624061 C711.198296,363.311269 712.761645,368 719.015041,368 Z M742.465157,366.998217 C748.399013,366.922944 754.332868,363.460383 757.569517,358.868725 C758.956652,356.911625 759.187841,354.803978 758.879589,354.201794 C758.571337,353.524336 757.954832,353.524336 757.569517,354.126521 C754.255805,359.094544 748.630202,365.11639 742.233968,364.815298 C738.149626,364.589479 736.300112,359.847275 738.76613,352.922151 C744.160544,357.212717 749.323769,355.255617 753.099859,350.739232 C756.336508,346.900305 756.953012,342.308647 755.565877,340.502093 C754.332868,338.846085 752.945733,337.716989 751.019157,336.587893 C747.166004,334.404974 739.305572,338.319174 734.296473,348.029401 C729.287374,357.739629 732.678148,367.148764 742.465157,366.998217 Z M740,351.18027 C740.146971,350.794511 740.367426,350.3316 740.587882,349.86869 C744.041691,342.539272 750.140969,337.910166 751.68416,339.221746 C752.712954,340.070415 751.096278,344.082307 748.744749,347.322681 C746.613675,350.254448 743.600779,353.571974 740,351.18027 Z M779.48601,367 C783.996338,367 788.895486,363.189255 790.995121,359.004907 C792.083821,356.838012 792.23935,355.119441 791.695,354.297515 C791.306179,353.699751 790.761829,353.699751 790.373007,354.372236 C787.417965,359.602671 783.607516,364.534224 780.419181,364.683665 C777.619668,364.833106 777.153082,361.321242 779.174953,356.987453 C780.963531,353.101987 784.77398,347.57267 786.40703,344.284968 C788.351136,340.399503 785.940444,336.738198 783.374223,336.364596 C780.808003,335.990993 775.520033,340.100621 772.020641,343.687204 C772.876048,340.997267 772.953812,338.45677 771.787348,336.588757 C771.320762,335.841552 770.698648,335.766832 770.154298,336.588757 C765.25515,343.537763 759.267301,353.923913 757.712016,358.631304 C756.467788,362.367329 756.934373,364.833106 758.489659,366.327516 C759.189537,367 759.656122,366.701118 759.96718,366.028634 C763.311043,359.004907 766.732671,351.831739 771.320762,347.049627 C776.297675,341.819192 780.808003,339.727018 781.585645,340.0259 C782.985402,340.623664 776.142147,348.544037 773.575926,355.866646 C771.320762,362.367329 772.876048,367 779.48601,367 Z" id="path-1"></path>
        <path d="M484.508876,432 L484.508876,413.831461 L488,413.831461 L488,411 L478,411 L478,413.831461 L481.491124,413.831461 L481.491124,432 L484.508876,432 Z M500,432 C500.686869,432 501.333333,431.873259 501.939394,431.619777 C502.545455,431.366295 503.080808,431.01532 503.545455,430.566852 C504.010101,430.118384 504.368687,429.606546 504.621212,429.031337 C504.873737,428.456128 505,427.827298 505,427.144847 L505,427.144847 L505,411 L501.909091,411 L501.909091,426.852368 C501.909091,427.593315 501.727273,428.139276 501.363636,428.490251 C501,428.841226 500.545455,429.016713 500,429.016713 C499.454545,429.016713 499,428.841226 498.636364,428.490251 C498.272727,428.139276 498.090909,427.593315 498.090909,426.852368 L498.090909,426.852368 L498.090909,411 L495,411 L495,427.144847 C495,427.827298 495.131313,428.456128 495.393939,429.031337 C495.656566,429.606546 496.020202,430.118384 496.484848,430.566852 C496.949495,431.01532 497.479798,431.366295 498.075758,431.619777 C498.671717,431.873259 499.313131,432 500,432 Z M516.065574,432 L516.065574,423.033708 L517.898907,423.033708 L520.754098,432 L524,432 L520.693989,422.414326 C521.675774,421.883427 522.362022,421.185393 522.752732,420.320225 C523.143443,419.455056 523.338798,418.40309 523.338798,417.164326 C523.338798,413.054775 521.535519,411 517.928962,411 L517.928962,411 L513,411 L513,432 L516.065574,432 Z M518.657143,421 L517,421 L517,415 L518.514286,415 C519.52381,415 520.209524,415.252252 520.571429,415.756757 C520.742857,416.027027 520.857143,416.346847 520.914286,416.716216 C520.971429,417.085586 521,417.513514 521,418 C521,418.486486 520.971429,418.914414 520.914286,419.283784 C520.857143,419.653153 520.752381,419.963964 520.6,420.216216 C520.428571,420.468468 520.190476,420.662162 519.885714,420.797297 C519.580952,420.932432 519.171429,421 518.657143,421 L518.657143,421 Z M533.944882,432 L533.944882,425.717697 L535.532808,422.679775 L538.88189,432 L542,432 L537.23622,419.405899 L541.249344,411 L538.304462,411 L534.002625,420.585674 L533.944882,420.585674 L533.944882,411 L531,411 L531,432 L533.944882,432 Z M552,432 L552,411 L549,411 L549,432 L552,432 Z M564.971429,432 C565.904762,432 566.695238,431.845304 567.342857,431.535912 C567.990476,431.226519 568.514286,430.801105 568.914286,430.259669 C569.295238,429.737569 569.571429,429.104282 569.742857,428.359807 C569.914286,427.615331 570,426.808011 570,425.937845 C570,425.183702 569.961905,424.51174 569.885714,423.921961 C569.809524,423.332182 569.666667,422.805249 569.457143,422.34116 C569.228571,421.896409 568.914286,421.504834 568.514286,421.166436 C568.114286,420.828039 567.590476,420.533149 566.942857,420.281768 L566.942857,420.281768 L564.714286,419.382597 C564.333333,419.227901 564.033333,419.073204 563.814286,418.918508 C563.595238,418.763812 563.428571,418.58011 563.314286,418.367403 C563.2,418.154696 563.128571,417.912983 563.1,417.642265 C563.071429,417.371547 563.057143,417.033149 563.057143,416.627072 C563.057143,416.279006 563.085714,415.945442 563.142857,415.626381 C563.2,415.30732 563.304762,415.022099 563.457143,414.770718 C563.609524,414.538674 563.809524,414.345304 564.057143,414.190608 C564.304762,414.035912 564.628571,413.958564 565.028571,413.958564 C565.771429,413.958564 566.3,414.20511 566.614286,414.698204 C566.928571,415.191298 567.085714,415.776243 567.085714,416.453039 L567.085714,416.453039 L567.085714,417.120166 L570,417.120166 L570,415.66989 C570,414.470994 569.561905,413.407459 568.685714,412.479282 C568.247619,412.03453 567.728571,411.676796 567.128571,411.406077 C566.528571,411.135359 565.866667,411 565.142857,411 C564.285714,411 563.547619,411.149862 562.928571,411.449586 C562.309524,411.749309 561.8,412.150552 561.4,412.653315 C560.980952,413.156077 560.666667,413.755525 560.457143,414.451657 C560.247619,415.14779 560.142857,415.882597 560.142857,416.656077 C560.142857,417.951657 560.357143,419.029696 560.785714,419.890193 C561.214286,420.750691 562.057143,421.441989 563.314286,421.964088 L563.314286,421.964088 L565.4,422.834254 C565.761905,422.98895 566.052381,423.133978 566.271429,423.269337 C566.490476,423.404696 566.666667,423.578729 566.8,423.791436 C566.914286,424.004144 566.990476,424.28453 567.028571,424.632597 C567.066667,424.980663 567.085714,425.425414 567.085714,425.966851 C567.085714,426.430939 567.071429,426.851519 567.042857,427.228591 C567.014286,427.605663 566.92381,427.929558 566.771429,428.200276 C566.619048,428.470994 566.404762,428.678867 566.128571,428.823895 C565.852381,428.968923 565.466667,429.041436 564.971429,429.041436 C564.228571,429.041436 563.7,428.823895 563.385714,428.388812 C563.071429,427.953729 562.914286,427.46547 562.914286,426.924033 L562.914286,426.924033 L562.914286,425.995856 L560,425.995856 L560,427.098066 C560,427.794199 560.128571,428.437155 560.385714,429.026934 C560.642857,429.616713 560.990476,430.133978 561.428571,430.578729 C561.866667,431.023481 562.390476,431.371547 563,431.622928 C563.609524,431.874309 564.266667,432 564.971429,432 Z M581.090909,432 L581.090909,422.650281 L584.909091,422.650281 L584.909091,432 L588,432 L588,411 L584.909091,411 L584.909091,419.995787 L581.090909,419.995787 L581.090909,411 L578,411 L578,432 L581.090909,432 Z M610.081571,432 L610.081571,423.800562 L611.652568,423.800562 C612.800604,423.800562 613.72709,423.608848 614.432024,423.225421 C615.136959,422.841994 615.700906,422.30618 616.123867,421.617978 C616.486405,421.047753 616.723061,420.438202 616.833837,419.789326 C616.944612,419.140449 617,418.344101 617,417.400281 C617,416.141854 616.899295,415.143961 616.697885,414.406601 C616.496475,413.669242 616.133938,413.025281 615.610272,412.474719 C615.086606,411.924157 614.502518,411.54073 613.858006,411.324438 C613.213494,411.108146 612.468278,411 611.622356,411 L611.622356,411 L607,411 L607,432 L610.081571,432 Z M611.473684,421 L610,421 L610,415 L611.593985,415 C612.195489,415 612.656642,415.07438 612.977444,415.22314 C613.298246,415.371901 613.538847,415.586777 613.699248,415.867769 C613.859649,416.14876 613.949875,416.475207 613.969925,416.847107 C613.989975,417.219008 614,417.61157 614,418.024793 C614,418.471074 613.984962,418.876033 613.954887,419.239669 C613.924812,419.603306 613.829574,419.909091 613.669173,420.157025 C613.508772,420.421488 613.258145,420.628099 612.917293,420.77686 C612.576441,420.92562 612.095238,421 611.473684,421 L611.473684,421 Z M633,432 L633,428.991573 L627.019737,428.991573 L627.019737,411 L624,411 L624,432 L633,432 Z M642.037221,432 L642.930521,427.48736 L647.069479,427.48736 L647.962779,432 L651,432 L646.265509,411 L643.734491,411 L639,432 L642.037221,432 Z M647,426 L644,426 L645.470588,418 L645.529412,418 L647,426 Z M661.508876,432 L661.508876,413.831461 L665,413.831461 L665,411 L655,411 L655,413.831461 L658.491124,413.831461 L658.491124,432 L661.508876,432 Z M677.508876,432 L677.508876,413.831461 L681,413.831461 L681,411 L671,411 L671,413.831461 L674.491124,413.831461 L674.491124,432 L677.508876,432 Z M696,432 L696,428.991573 L690.019737,428.991573 L690.019737,422.827247 L695.230263,422.827247 L695.230263,419.995787 L690.019737,419.995787 L690.019737,413.831461 L696,413.831461 L696,411 L687,411 L687,432 L696,432 Z M706.065574,432 L706.065574,423.033708 L707.898907,423.033708 L710.754098,432 L714,432 L710.693989,422.414326 C711.675774,421.883427 712.362022,421.185393 712.752732,420.320225 C713.143443,419.455056 713.338798,418.40309 713.338798,417.164326 C713.338798,413.054775 711.535519,411 707.928962,411 L707.928962,411 L703,411 L703,432 L706.065574,432 Z M708.657143,421 L707,421 L707,415 L708.514286,415 C709.52381,415 710.209524,415.252252 710.571429,415.756757 C710.742857,416.027027 710.857143,416.346847 710.914286,416.716216 C710.971429,417.085586 711,417.513514 711,418 C711,418.486486 710.971429,418.914414 710.914286,419.283784 C710.857143,419.653153 710.752381,419.963964 710.6,420.216216 C710.428571,420.468468 710.190476,420.662162 709.885714,420.797297 C709.580952,420.932432 709.171429,421 708.657143,421 L708.657143,421 Z" id="path-2"></path>
    </defs>
    <g id="seo" stroke="none" stroke-width="1" fill="none" fill-rule="evenodd">
        <rect fill="#C70039" x="0" y="0" width="1200" height="628"></rect>
        <circle id="Oval" fill="#FFFFFF" cx="599.5" cy="313.5" r="237.5"></circle>
        <circle id="Oval" stroke="#C70039" stroke-width="2" fill="#FFFFFF" cx="599.5" cy="313.5" r="221.666667"></circle>
        <g id="Group" transform="translate(536.166667, 142.500000)">
            <path d="M126.833333,28.5 C117.465528,32.4516428 109.487998,35.5320846 101.267141,40.5793812 C101.041817,44.3187194 100.947738,47.5304777 100.928574,50.3077924 C104.810774,47.5576666 108.638386,45.340327 112.034513,43.6123871 C108.282977,54.5394228 108.589604,67.05614 108.888682,79.2616313 C109.215634,92.5853375 109.383466,99.6810556 104.967572,109.499711 C95.795474,129.89831 78.358383,134.88313 74.8333333,136.5 C105.570373,134.071513 118.761144,117.21036 116.800589,76.444401 C115.450965,48.3762253 119.585785,39.4617449 126.833333,28.5" id="Fill-22" fill="#00A8A8"></path>
            <path d="M76.3086333,114.95621 C73.3379745,106.3648 71.9050135,82.3049082 86.3206368,63.8527256 C86.4394163,66.9599975 86.5798453,68.5374195 86.8472456,71.6029208 C88.0332856,85.1661974 89.8220002,104.635379 76.3086333,114.95621 Z M66.9396776,36.8509041 C65.8250223,38.5031652 63.5723069,42.2909505 63.5126246,42.398858 C63.4529423,42.2909505 61.3113998,38.6835912 60.2575971,37.1061692 C58.3992532,34.3261007 56.4484601,31.8500296 54.4409104,29.6205215 C57.7357261,25.7439735 60.8251644,21.8975932 63.5126246,17.6398882 C66.4639744,21.8401586 69.5106988,26.2191146 72.5211458,29.6866583 C70.5972683,31.8291443 68.7260517,34.2025292 66.9396776,36.8509041 Z M95.0863328,36.1408032 C96.4414728,21.9793941 98.891959,18.3708744 102.833333,9.33391135 C95.7703391,12.8211801 86.6892629,16.7041097 78.0616555,24.2263067 C73.746974,19.777733 64.8976057,9.68954198 63.5126246,0.5 C62.1276435,9.68954198 53.2788603,19.7783131 48.964764,24.2263067 C40.3359863,16.7035295 31.2549101,12.8211801 24.1930861,9.33391135 C28.7564439,19.8044198 31.3286353,22.9987139 32.5018027,43.7540834 C32.5018027,43.7546636 32.5018027,43.7552437 32.5023878,43.7558239 C32.5257927,44.1874539 32.5544636,44.580214 32.5772833,45.0263477 C32.5743577,45.0246072 32.5702618,45.0217065 32.5673362,45.0193859 C21.6542466,36.8764306 11.8856534,33.2516669 -0.166666667,28.1898768 C7.13505688,39.1830985 11.3017027,48.1231769 9.94129666,76.2719507 C7.96592854,117.15497 21.2575346,134.064539 52.2262278,136.5 C48.674544,134.878487 31.1062894,129.879353 21.8648901,109.422179 C17.4144606,99.5753296 17.5835606,92.4592361 17.9129836,79.0972707 C18.2143209,66.8567312 18.5232647,54.3040721 14.7433838,43.3456593 C20.1931997,46.1054227 26.7442132,50.0347641 32.8657479,55.5125201 C32.8680884,55.5154208 32.8704289,55.5165811 32.8733545,55.5189017 C32.909632,63.5875981 32.4994622,67.8911348 32.2344025,70.9212471 C29.3169897,104.32384 37.9955027,112.470276 52.7528366,120.649781 C62.5758461,100.280789 61.675345,82.2538552 51.3742918,65.3199195 C50.1338355,63.28128 48.7939087,61.378395 47.3983954,59.5671734 C47.3902037,62.983084 47.3568518,67.5546491 46.4662978,73.1310302 C54.5877757,89.6664043 53.2086458,107.747292 50.7177862,114.95621 C37.2026639,104.635379 39.3758029,85.8774587 40.1785887,71.6029208 C40.455936,66.6432368 40.954459,55.449284 40.4717343,43.5498714 C40.1317791,37.5058911 39.5402219,31.3957739 38.5894004,26.1297718 C53.877439,37.038872 58.292176,49.6008135 63.5284229,62.5764004 C68.4557259,50.3660285 72.8002484,37.2871753 88.4358488,26.1297718 C87.0344843,33.9078141 86.3961174,43.5313067 86.2322835,52.0507779 C82.3851137,55.8316014 78.7503427,60.2250611 75.6509574,65.3199195 C65.3510744,82.2538552 64.4499883,100.280789 74.2729977,120.649781 C89.0309167,112.470276 97.7082595,104.32384 94.7902616,70.9212471 C93.7183202,58.6151508 94.2531206,44.8348989 95.0863328,36.1408032 L95.0863328,36.1408032 Z" id="Fill-23" fill="#C70039"></path>
        </g>
        <g id="Tulay’sKitchen" fill-rule="nonzero">
            <use fill="#FFFFFF" xlink:href="#path-1"></use>
            <use fill="#C70039" xlink:href="#path-1"></use>
        </g>
        <g id="TURKISHPLATTER" fill-rule="nonzero">
            <use fill="#FFFFFF" xlink:href="#path-2"></use>
            <use fill="#008888" xlink:href="#path-2"></use>
        </g>
    </g>
</svg>