<?xml version="1.0" standalone="no"?>
<!DOCTYPE svg PUBLIC "-//W3C//DTD SVG 20010904//EN"
 "http://www.w3.org/TR/2001/REC-SVG-20010904/DTD/svg10.dtd">
<svg version="1.0" xmlns="http://www.w3.org/2000/svg"
 width="700.000000pt" height="700.000000pt" viewBox="0 0 700.000000 700.000000"
 preserveAspectRatio="xMidYMid meet">
<metadata>
Created by potrace 1.14, written by Peter Selinger 2001-2017
</metadata>
<g transform="translate(0.000000,700.000000) scale(0.100000,-0.100000)"
fill="#000000" stroke="none">
<path d="M3501 6386 c-52 -241 -245 -556 -544 -888 -34 -38 -65 -68 -69 -68
-5 0 -50 33 -101 74 -123 98 -262 193 -399 272 -133 76 -568 297 -568 288 0
-3 13 -34 29 -68 99 -208 190 -449 226 -596 16 -70 19 -81 30 -150 4 -25 9
-54 11 -65 8 -42 33 -242 39 -310 2 -28 11 -153 20 -292 l4 -61 -154 104 c-84
57 -158 104 -164 104 -6 0 -11 5 -11 10 0 6 -4 10 -9 10 -5 0 -45 21 -88 47
-116 69 -409 209 -668 318 -127 53 -249 105 -273 116 l-42 18 11 -22 c7 -12
25 -41 40 -64 16 -23 29 -46 29 -51 0 -6 4 -12 8 -14 22 -9 146 -256 196 -391
36 -97 89 -286 100 -362 4 -22 8 -47 11 -55 2 -8 6 -40 10 -71 3 -31 7 -65 9
-75 4 -19 15 -151 22 -254 6 -97 4 -540 -3 -690 -13 -269 -6 -694 12 -845 2
-16 7 -59 10 -95 4 -36 11 -83 15 -105 5 -22 11 -60 15 -85 3 -25 8 -52 10
-60 2 -8 7 -28 9 -45 10 -58 46 -187 77 -278 118 -346 308 -613 569 -798 187
-134 512 -261 772 -304 18 -3 44 -7 58 -10 14 -3 45 -7 70 -10 156 -19 185
-22 187 -20 4 3 -31 19 -152 70 -348 149 -635 362 -856 640 -59 73 -129 171
-129 180 0 2 -15 28 -34 57 -83 131 -193 386 -232 543 -2 6 -12 55 -23 110
-38 193 -37 174 -32 1265 2 312 -1 401 -14 555 -8 83 -27 222 -40 285 -2 14
-6 36 -9 50 -8 50 -45 196 -60 239 -9 24 -16 45 -16 48 0 6 164 -83 265 -144
165 -101 286 -188 493 -359 l25 -21 -7 -254 c-3 -140 -8 -272 -10 -294 -5 -45
-12 -129 -23 -260 -10 -120 -10 -590 0 -690 31 -323 106 -578 222 -760 129
-203 299 -353 587 -523 l87 -51 32 67 c116 248 203 538 245 817 18 119 24 390
11 515 -34 344 -154 690 -350 1011 -44 71 -160 239 -163 236 -1 -1 -5 -74 -8
-162 -3 -88 -8 -178 -10 -200 -3 -22 -8 -64 -11 -93 -3 -28 -8 -67 -11 -86 -4
-26 7 -62 44 -152 106 -254 160 -456 197 -745 24 -182 24 -528 0 -669 -2 -14
-6 -43 -10 -65 -10 -66 -46 -215 -54 -219 -4 -3 -39 25 -78 62 -227 215 -351
500 -391 902 -14 145 -7 597 13 875 26 349 26 1305 0 1475 -2 14 -6 61 -10
105 -5 69 -13 135 -41 350 -3 22 -7 48 -10 58 -3 9 -2 17 3 17 4 0 53 -37 108
-81 148 -118 281 -251 408 -408 43 -53 149 -214 202 -306 78 -136 157 -304
249 -530 43 -104 83 -203 90 -219 12 -29 13 -26 65 105 29 74 61 152 72 175
10 23 19 44 19 48 0 11 59 139 133 286 106 212 245 417 387 574 104 115 377
356 403 356 5 0 6 -8 3 -17 -3 -10 -8 -38 -11 -63 -3 -25 -8 -56 -10 -70 -3
-14 -7 -50 -10 -80 -3 -30 -7 -71 -10 -90 -7 -54 -13 -117 -20 -210 -4 -47 -8
-101 -10 -120 -3 -32 -16 -328 -19 -426 -1 -37 -9 -49 -81 -126 -244 -258
-448 -573 -569 -878 -46 -118 -109 -324 -120 -395 -4 -22 -11 -65 -17 -95 -18
-101 -26 -224 -22 -385 1 -88 5 -173 7 -190 2 -16 7 -52 11 -80 32 -241 121
-535 244 -809 31 -67 31 -68 54 -52 12 9 29 19 37 23 32 14 234 145 293 190
34 26 103 88 152 138 232 233 350 527 392 975 15 162 7 675 -13 835 -25 203
-25 1191 1 1348 2 12 6 60 10 107 3 47 7 99 10 115 2 17 7 53 10 80 6 48 29
202 40 256 8 44 55 221 70 264 23 69 71 185 139 339 36 82 66 150 66 152 0 9
-488 -242 -594 -306 -107 -63 -275 -175 -323 -214 -10 -8 -46 -37 -79 -65 -34
-28 -66 -51 -72 -51 -5 0 -38 33 -73 73 -35 39 -68 77 -74 82 -6 6 -28 33 -50
60 -22 28 -42 52 -45 55 -3 3 -23 30 -46 60 -175 236 -274 426 -324 620 l-17
65 -12 -59z m116 -823 c53 -76 136 -187 183 -248 47 -60 89 -115 93 -122 5 -8
-16 -40 -54 -85 -82 -98 -161 -209 -249 -350 -40 -65 -76 -116 -80 -113 -5 3
-23 31 -40 63 -77 136 -260 391 -332 463 -14 14 -9 23 54 100 97 117 205 260
267 352 28 42 53 77 56 77 2 0 48 -62 102 -137z m888 -1978 c4 -55 8 -113 10
-130 1 -16 6 -75 10 -130 4 -55 9 -113 11 -130 23 -189 23 -727 -1 -815 -2 -8
-6 -32 -9 -53 -33 -223 -116 -441 -228 -604 -58 -83 -201 -233 -223 -233 -17
0 -43 90 -59 205 -4 23 -9 52 -11 65 -29 146 -24 541 9 760 26 166 39 227 92
409 47 162 190 486 240 542 8 8 14 19 14 23 0 11 131 198 135 194 2 -2 7 -48
10 -103z"/>
<path d="M6175 5215 c-47 -22 -108 -49 -265 -115 -362 -153 -762 -359 -774
-398 -3 -9 -8 -106 -11 -216 l-7 -198 64 45 c73 52 289 182 365 221 l52 26
-19 -55 c-35 -103 -82 -331 -95 -470 -4 -33 -8 -71 -10 -85 -12 -67 -19 -347
-16 -635 8 -797 6 -959 -14 -1102 -15 -100 -40 -208 -75 -314 -36 -111 -50
-146 -111 -274 -222 -471 -632 -850 -1136 -1050 -37 -15 -79 -34 -93 -41 l-25
-14 25 5 c14 2 48 7 75 9 111 11 155 18 275 42 137 28 347 94 454 143 503 228
804 669 920 1346 9 50 18 115 22 145 3 30 7 66 10 80 14 86 19 272 16 605 -2
209 -4 497 -5 640 -2 241 5 436 18 545 20 155 40 264 80 432 33 142 159 420
269 596 36 56 59 102 53 101 -7 0 -25 -7 -42 -14z"/>
</g>
</svg>
